<svg width="28" height="28" viewBox="0 0 28 28" fill="none" xmlns="http://www.w3.org/2000/svg">
<path d="M27.3334 14C27.3334 21.364 21.364 27.3333 14 27.3333C6.63602 27.3333 0.666687 21.364 0.666687 14C0.666687 6.636 6.63602 0.666664 14 0.666664C21.364 0.666664 27.3334 6.636 27.3334 14ZM24.6667 14C24.6667 11.171 23.5429 8.45791 21.5425 6.45753C19.5421 4.45714 16.829 3.33333 14 3.33333C11.171 3.33333 8.45794 4.45714 6.45755 6.45753C4.45716 8.45791 3.33335 11.171 3.33335 14C3.33335 16.829 4.45716 19.5421 6.45755 21.5425C8.45794 23.5429 11.171 24.6667 14 24.6667C16.829 24.6667 19.5421 23.5429 21.5425 21.5425C23.5429 19.5421 24.6667 16.829 24.6667 14ZM12.6667 22V12.6667H15.3334V22H12.6667ZM14 10.3333C13.7825 10.3355 13.5667 10.2936 13.3658 10.2102C13.1648 10.1268 12.9828 10.0036 12.8307 9.848C12.6701 9.69661 12.5428 9.51332 12.4572 9.30988C12.3715 9.10645 12.3294 8.88736 12.3334 8.66666C12.3334 8.20266 12.4974 7.808 12.8294 7.48533C13.1587 7.16266 13.5494 7 14 7C14.4494 7 14.84 7.16266 15.1694 7.48533C15.5 7.808 15.6667 8.20266 15.6667 8.66666C15.6667 9.13066 15.5014 9.52533 15.1694 9.848C15.0172 10.0036 14.8352 10.1268 14.6343 10.2102C14.4333 10.2936 14.2176 10.3355 14 10.3333Z" fill="white"/>
</svg>
